<?xml version="1.0" encoding="UTF-8"?>
<svg width="24px" height="24px" viewBox="0 0 24 24" version="1.1" xmlns="http://www.w3.org/2000/svg">
    <g stroke="none" stroke-width="1" fill="none" fill-rule="evenodd">
        <path d="M16,11 L18.5,11 C19.9,11 21,12.1 21,13.5 L21,15.5 C21,16.9 19.9,18 18.5,18 L5.5,18 C4.1,18 3,16.9 3,15.5 L3,13.5 C3,12.1 4.1,11 5.5,11 L8,11 L8,8 C8,6.9 8.9,6 10,6 L14,6 C15.1,6 16,6.9 16,8 L16,11 Z M14,8 L10,8 L10,11 L14,11 L14,8 Z M9,14 L7,14 L7,16 L9,16 L9,14 Z M13,14 L11,14 L11,16 L13,16 L13,14 Z M17,14 L15,14 L15,16 L17,16 L17,14 Z" fill="#C29E49" fill-rule="nonzero"></path>
    </g>
</svg>