<?xml version="1.0" encoding="UTF-8"?>
<svg width="24px" height="24px" viewBox="0 0 24 24" version="1.1" xmlns="http://www.w3.org/2000/svg">
    <g stroke="none" stroke-width="1" fill="none" fill-rule="evenodd">
        <path d="M20,8.2 L14,2.2 C13.4,1.6 12.6,1.6 12,2.2 L6,8.2 C5.6,8.6 5.6,9.3 6,9.7 L6.7,10.4 L2,15.1 L3.4,16.5 L8.1,11.8 L15.8,19.5 L14.5,20.8 C14.1,21.2 14.1,21.9 14.5,22.3 C14.9,22.7 15.6,22.7 16,22.3 L21.7,16.6 C22.1,16.2 22.1,15.5 21.7,15.1 L20.4,13.8 L21.1,13.1 C21.5,12.7 21.5,12 21.1,11.6 L13.4,3.9 L19,9.5 L16.9,11.6 C16.5,12 16.5,12.7 16.9,13.1 C17.3,13.5 18,13.5 18.4,13.1 L20.9,10.6 L21.7,11.3 C22.1,11.7 22.7,11.9 23.3,11.8 C23.9,11.7 24.3,11.4 24.6,10.9 C25,10 24.6,8.9 23.7,8.5 L20,8.2 Z M5.5,21 C6.9,21 8,19.9 8,18.5 C8,17.6 6.1,15 5.5,15 C4.9,15 3,17.6 3,18.5 C3,19.9 4.1,21 5.5,21 Z" fill="#C29E49" fill-rule="nonzero"></path>
    </g>
</svg>