<?xml version="1.0" encoding="UTF-8"?>
<svg width="24px" height="24px" viewBox="0 0 24 24" version="1.1" xmlns="http://www.w3.org/2000/svg">
    <g stroke="none" stroke-width="1" fill="none" fill-rule="evenodd">
        <path d="M12,4 C15.9,4 19,7.1 19,11 L19,13 C19,13.5 19.4,14 20,14 C20.6,14 21,13.6 21,13 L21,11 C21,6 17,2 12,2 C7,2 3,6 3,11 L3,13 C3,13.6 3.4,14 4,14 C4.6,14 5,13.5 5,13 L5,11 C5,7.1 8.1,4 12,4 Z M17,13 L17,15 C17,17.2 15.2,19 13,19 L11,19 C8.8,19 7,17.2 7,15 L7,13 C7,12.4 6.6,12 6,12 C5.4,12 5,12.4 5,13 L5,15 C5,18.3 7.7,21 11,21 L11,22 L9,22 C8.4,22 8,22.4 8,23 C8,23.6 8.4,24 9,24 L15,24 C15.6,24 16,23.6 16,23 C16,22.4 15.6,22 15,22 L13,22 L13,21 C16.3,21 19,18.3 19,15 L19,13 C19,12.4 18.6,12 18,12 C17.4,12 17,12.4 17,13 Z M12,6 C9.2,6 7,8.2 7,11 L17,11 C17,8.2 14.8,6 12,6 Z" fill="#C29E49" fill-rule="nonzero"></path>
    </g>
</svg>