<?xml version="1.0" encoding="UTF-8"?>
<svg width="24px" height="24px" viewBox="0 0 24 24" version="1.1" xmlns="http://www.w3.org/2000/svg">
    <g stroke="none" stroke-width="1" fill="none" fill-rule="evenodd">
        <path d="M12,3 C7.8,3 4.5,8.1 4.5,13 L3,13 C3,14.7 4.3,16 6,16 L6,19 C6,19.6 6.4,20 7,20 L8,20 C8.6,20 9,19.6 9,19 L9,16 L15,16 L15,19 C15,19.6 15.4,20 16,20 L17,20 C17.6,20 18,19.6 18,19 L18,16 C19.7,16 21,14.7 21,13 L19.5,13 C19.5,8.1 16.2,3 12,3 Z M7.6,7.8 C8.1,7.1 9.1,7 9.8,7.6 C10.5,8.1 10.6,9.1 10,9.8 C9.5,10.5 8.5,10.6 7.8,10 C7.1,9.5 7,8.5 7.6,7.8 Z M13.5,5.8 C13.9,5.1 14.8,4.9 15.5,5.3 C16.2,5.7 16.4,6.6 16,7.3 C15.6,8 14.7,8.2 14,7.8 C13.3,7.4 13.1,6.5 13.5,5.8 Z M8.9,12.9 C8.5,12.2 8.7,11.3 9.4,10.9 C10.1,10.5 11,10.7 11.4,11.4 C11.8,12.1 11.6,13 10.9,13.4 C10.2,13.8 9.3,13.6 8.9,12.9 Z M14.5,11.7 C14,11 14.1,10 14.8,9.5 C15.5,9 16.5,9.1 17,9.8 C17.5,10.5 17.4,11.5 16.7,12 C16,12.5 15,12.4 14.5,11.7 Z" fill="#C29E49" fill-rule="nonzero"></path>
    </g>
</svg>