<?xml version="1.0" encoding="UTF-8"?>
<svg width="24px" height="24px" viewBox="0 0 24 24" version="1.1" xmlns="http://www.w3.org/2000/svg">
    <g stroke="none" stroke-width="1" fill="none" fill-rule="evenodd">
        <path d="M18,4 L18,1 C18,0.4 17.6,0 17,0 L7,0 C6.4,0 6,0.4 6,1 L6,4 C4.3,4 3,5.3 3,7 L3,20 C3,21.7 4.3,23 6,23 L18,23 C19.7,23 21,21.7 21,20 L21,7 C21,5.3 19.7,4 18,4 Z M16,2 L16,4 L8,4 L8,2 L16,2 Z M12,18 C10.3,18 9,16.7 9,15 C9,13.3 12,10 12,10 C12,10 15,13.3 15,15 C15,16.7 13.7,18 12,18 Z" fill="#C29E49" fill-rule="nonzero"></path>
    </g>
</svg>