<?xml version="1.0" encoding="UTF-8"?>
<svg width="24px" height="24px" viewBox="0 0 24 24" version="1.1" xmlns="http://www.w3.org/2000/svg">
    <g stroke="none" stroke-width="1" fill="none" fill-rule="evenodd">
        <path d="M21.5,11 L18.5,11 C18.4,9.5 17.9,8.1 17,7 L19.2,4.8 C19.6,4.4 19.6,3.8 19.2,3.4 C18.8,3 18.2,3 17.8,3.4 L15.6,5.6 C14.5,4.7 13.1,4.2 11.5,4.1 L11.5,1 C11.5,0.4 11.1,0 10.5,0 C9.9,0 9.5,0.4 9.5,1 L9.5,4 C7.7,4 6.1,4.6 4.8,5.6 L2.7,3.5 C2.3,3.1 1.7,3.1 1.3,3.5 C0.9,3.9 0.9,4.5 1.3,4.9 L3.3,6.9 C2.3,8.2 1.6,9.8 1.5,11.5 L2,11.5 C1.4,11.5 1,11.9 1,12.5 C1,13.1 1.4,13.5 2,13.5 L1.5,13.5 C1.6,15.2 2.2,16.8 3.3,18.1 L1.3,20.1 C0.9,20.5 0.9,21.1 1.3,21.5 C1.7,21.9 2.3,21.9 2.7,21.5 L4.8,19.4 C6.1,20.5 7.7,21.1 9.5,21.2 L9.5,23 C9.5,23.6 9.9,24 10.5,24 C11.1,24 11.5,23.6 11.5,23 L11.5,21 C13.1,20.9 14.5,20.4 15.6,19.4 L17.8,21.6 C18.2,22 18.8,22 19.2,21.6 C19.6,21.2 19.6,20.6 19.2,20.2 L17,18 C17.9,16.9 18.4,15.5 18.5,14 L21.5,14 C22.1,14 22.5,13.6 22.5,13 C22.5,12.4 22.1,12 21.5,12 L21.5,11 Z M10.5,18 C7.5,18 5,15.5 5,12.5 C5,9.5 7.5,7 10.5,7 C13.5,7 16,9.5 16,12.5 C16,15.5 13.5,18 10.5,18 Z M10.5,13.5 C9.7,13.5 9,12.8 9,12 C9,11.2 9.7,10.5 10.5,10.5 C11.3,10.5 12,11.2 12,12 C12,12.8 11.3,13.5 10.5,13.5 Z" fill="#C29E49" fill-rule="nonzero"></path>
    </g>
</svg>