<?xml version="1.0" encoding="UTF-8"?>
<svg width="24px" height="24px" viewBox="0 0 24 24" version="1.1" xmlns="http://www.w3.org/2000/svg">
    <g stroke="none" stroke-width="1" fill="none" fill-rule="evenodd">
        <path d="M19.2,5.8 C19.6,6.2 19.6,6.8 19.2,7.2 L18.1,8.3 C17.4,9 16.7,9 16,8.3 L15.7,8 C15,7.3 15,6.6 15.7,5.9 L16.8,4.8 C17.2,4.4 17.8,4.4 18.2,4.8 L19.2,5.8 Z M15,10 C15.4,9.6 16,9.6 16.4,10 L19,12.6 C19.4,13 19.4,13.6 19,14 L15,18 C14.6,18.4 14,18.4 13.6,18 L11,15.4 C10.6,15 10.6,14.4 11,14 L15,10 Z M17,3 C16.7,3 16.5,3.1 16.3,3.3 L14.3,5.3 L14.2,5.2 C13.5,4.5 13.5,3.3 14.3,2.5 L15.5,1.3 C15.8,1 16.4,1 16.7,1.3 L18.7,3.3 C19,3.6 19,4.2 18.7,4.5 L17.5,5.7 C16.7,6.5 15.5,6.5 14.8,5.8 L14.7,5.7 L16.7,3.7 C16.9,3.5 17,3.3 17,3 Z M6,15 L9.5,15 L12.2,17.7 C12.6,18.1 12.6,18.8 12.2,19.2 L8,23.4 C7.6,23.8 6.9,23.8 6.5,23.4 L0.6,17.5 C0.2,17.1 0.2,16.4 0.6,16 L4.8,11.8 C5.2,11.4 5.9,11.4 6.3,11.8 L9,14.5 L9,11 C9,7.1 12.1,4 16,4 L16,4 L16,7 C13.8,7 12,8.8 12,11 L12,17.5 L10.5,16 L4.5,16 L2,18.5 L7.5,24 L10,21.5 L10,15.5 L8.5,14 L6,14 L6,15 Z" fill="#C29E49" fill-rule="nonzero"></path>
    </g>
</svg>