<?xml version="1.0" encoding="UTF-8"?>
<svg width="24px" height="24px" viewBox="0 0 24 24" version="1.1" xmlns="http://www.w3.org/2000/svg">
    <g stroke="none" stroke-width="1" fill="none" fill-rule="evenodd">
        <path d="M20,3 L4,3 C2.3,3 1,4.3 1,6 L1,18 C1,19.7 2.3,21 4,21 L20,21 C21.7,21 23,19.7 23,18 L23,6 C23,4.3 21.7,3 20,3 Z M21,18 C21,18.6 20.6,19 20,19 L12,19 L12,5 L20,5 C20.6,5 21,5.4 21,6 L21,18 Z M3,18 L3,6 C3,5.4 3.4,5 4,5 L10,5 L10,19 L4,19 C3.4,19 3,18.6 3,18 Z M8,12 L5,12 L5,14 L8,14 L8,12 Z M19,12 L14,12 L14,14 L19,14 L19,12 Z M19,8 L14,8 L14,10 L19,10 L19,8 Z M8,8 L5,8 L5,10 L8,10 L8,8 Z" fill="#C29E49" fill-rule="nonzero"></path>
    </g>
</svg>